<svg viewBox="0 0 389.93 98.28" xmlns="http://www.w3.org/2000/svg">
	<g fill="#000001" fill-rule="evenodd">
	<path d="m365.72 98.28v-.86h1.62l1-2.82h-2.58v-.83h2.77c.54 0 .88.08 1 .23s.13.43 0 .84l-.81 2.38a1.57 1.57 0 0 1 -.56.84 2.24 2.24 0 0 1 -1.15.22zm6.67-1.65h.22a.23.23 0 0 1 .21.08.54.54 0 0 1 0 .31l-.3.87a.58.58 0 0 1 -.18.32.91.91 0 0 1 -.47.07h-1.1c-.11 0-.17 0-.2-.08a.55.55 0 0 1 0-.31l.29-.87a.69.69 0 0 1 .18-.31.93.93 0 0 1 .47-.08zm-6.67-2.86v.83h-1.62l-1 2.82h2.58v.86h-2.79c-.53 0-.86-.07-1-.22s-.13-.43 0-.84l.81-2.38a1.57 1.57 0 0 1 .56-.84 2.23 2.23 0 0 1 1.15-.23zm-12.89 4.51v-.86h1.63l1-2.82h-2.58v-.83h2.78c.54 0 .87.08 1 .23s.13.43 0 .84l-.81 2.38a1.52 1.52 0 0 1 -.56.84 2.24 2.24 0 0 1 -1.15.22zm6.68-1.65h.22c.11 0 .17 0 .2.08s0 .16 0 .31l-.29.87a.74.74 0 0 1 -.18.32.94.94 0 0 1 -.47.07h-1.1c-.11 0-.18 0-.21-.08a.5.5 0 0 1 .05-.31l.27-.89a.55.55 0 0 1 .18-.31.88.88 0 0 1 .47-.08zm-6.68-2.86v.83h-1.62l-.95 2.82h2.57v.86h-2.78c-.53 0-.87-.07-1-.22s-.13-.43 0-.84l.8-2.38a1.53 1.53 0 0 1 .57-.84 2.18 2.18 0 0 1 1.15-.23zm-24.83 2.75v-.77h1a1 1 0 0 0 .49-.09.44.44 0 0 0 .21-.28l.16-.47c.05-.13 0-.22 0-.28a.74.74 0 0 0 -.42-.08h-1.44v-.78h2.21a1.29 1.29 0 0 1 .79.23c.14.14.16.36.06.67l-.34 1a1.19 1.19 0 0 1 -.52.67 2.08 2.08 0 0 1 -1 .2zm8.2 1.76.17-.48 4.9-3.22h-3.47l.27-.81h5.49l-.15.45-5 3.23h3.89l-.28.83zm-14.31-3.7h-3.59l-.32 1h3.4a1.53 1.53 0 0 1 1 .22c.13.15.13.43 0 .84l-.21.63a1.53 1.53 0 0 1 -.57.84 2.24 2.24 0 0 1 -1.15.22h-3.45c-.54 0-.87-.07-1-.22s-.14-.43 0-.84v-.13l1.19-.18-.18.53h3.83l.35-1h-3.37a1.47 1.47 0 0 1 -1-.23q-.21-.23 0-.84l.17-.51a1.53 1.53 0 0 1 .57-.83 2.27 2.27 0 0 1 1.16-.23h3.09a1.58 1.58 0 0 1 1 .22c.15.14.16.4 0 .76v.11l-1.17.2.16-.48zm6.11-.81v.78h-1.49l-.41 1.2h1.9v.77h-2.2l-.6 1.76h-1.2l1.53-4.51z"/>
	<path d="m389.93 50.48-2.25 7.78h-7.68l-8.91 31.1h-15.64l9.05-31h-7.45l2.23-7.86z"/>
	<path d="m332.94 72.62 4.22-14.39h-7.39v-7.77h23.84l-11.3 38.87h-12.54v-5.86l1-3.27h-1v-7.58zm-3.17-14.39h-3.2l-4.2 14.39h7.4v7.58h-9.6l-2.65 9.13h-14.27l11.39-38.87h15.13zm0 25.24-1.72 5.86h1.72z"/>
	<path d="m265.46 50.5h14.6l4.94 7.69 9.33-7.69h14.32l-11.07 38.86h-14.34l6.31-21.75-10 10-4.32-10-6.23 21.75h-14.6z"/>
	<path d="m243.33 50.47h16.67l-11.27 38.86h-16.64z"/>
	<path d="m214.5 50.5h15.65l-7.84 27.09h7.17l-3.15 11.76h-23.07z"/>
	<path d="m188.82 50.51h20l-3.48 11.8h-16l2-7h-3.84l1.37-4.83zm-6.49 38.87v-3l3.18-11h-3.18v-2.31l2.53-8.76h19.95l-7.2 25.06zm0-35.88v-3h.87zm0-3v3l-7 24.11h3.92l-3.07 11.78h-23l11.2-38.86zm0 22.56-.67 2.31h.67v-2.3zm0 13.3-.87 3h.87z"/>
	<path d="m111.92 62.23 35 .05-8.86 26.89h-28.48v-19.84zm-2.34-13.12v-19.83h6.53zm0-22.45v-26.66h16.18l-8.68 26.66zm0 62.51h-6.58l6.54-19.84v19.84zm0-89.17v26.66h-30.08l5.29-16.17h-6.85l3.47-10.49zm0 29.28h-37.82l-5.23 15.72v12h3l-3 9v23.17h29.84l13.21-40.06zm-43-6v-23.28h7.65zm-.05-23.28v23.28l-12.77 38.87h5.71l-8.23 27-51.24.23 29.49-89.38zm0 45-4 12h4zm0 21-7.64 23.17h7.64z"/></g>
</svg>